# simple low-res uv sphere (long=10, lat=10), radius=1
o Sphere

# vertices
v 0.000000 1.000000 0.000000
v 0.587785 0.809017 0.000000
v 0.475528 0.809017 0.345492
v 0.181636 0.809017 0.559017
v -0.181636 0.809017 0.559017
v -0.475528 0.809017 0.345492
v -0.587785 0.809017 0.000000
v -0.475528 0.809017 -0.345492
v -0.181636 0.809017 -0.559017
v 0.181636 0.809017 -0.559017
v 0.475528 0.809017 -0.345492
v 0.951057 0.309017 0.000000
v 0.769421 0.309017 0.559017
v 0.293893 0.309017 0.904508
v -0.293893 0.309017 0.904508
v -0.769421 0.309017 0.559017
v -0.951057 0.309017 0.000000
v -0.769421 0.309017 -0.559017
v -0.293893 0.309017 -0.904508
v 0.293893 0.309017 -0.904508
v 0.769421 0.309017 -0.559017
v 0.951057 -0.309017 0.000000
v 0.769421 -0.309017 0.559017
v 0.293893 -0.309017 0.904508
v -0.293893 -0.309017 0.904508
v -0.769421 -0.309017 0.559017
v -0.951057 -0.309017 0.000000
v -0.769421 -0.309017 -0.559017
v -0.293893 -0.309017 -0.904508
v 0.293893 -0.309017 -0.904508
v 0.769421 -0.309017 -0.559017
v 0.587785 -0.809017 0.000000
v 0.475528 -0.809017 0.345492
v 0.181636 -0.809017 0.559017
v -0.181636 -0.809017 0.559017
v -0.475528 -0.809017 0.345492
v -0.587785 -0.809017 0.000000
v -0.475528 -0.809017 -0.345492
v -0.181636 -0.809017 -0.559017
v 0.181636 -0.809017 -0.559017
v 0.475528 -0.809017 -0.345492
v 0.000000 -1.000000 0.000000

# faces (triangulated strips)
# top cap
f 1 2 3
f 1 3 4
f 1 4 5
f 1 5 6
f 1 6 7
f 1 7 8
f 1 8 9
f 1 9 10
f 1 10 11
f 1 11 2

# ring 0 (between row 2 and 3)
f 2 12 3
f 3 12 13
f 3 13 4
f 4 13 14
f 4 14 5
f 5 14 15
f 5 15 6
f 6 15 16
f 6 16 7
f 7 16 17
f 7 17 8
f 8 17 18
f 8 18 9
f 9 18 19
f 9 19 10
f 10 19 20
f 10 20 11
f 11 20 21
f 11 21 2
f 2 21 12

# ring 1 (between row 3 and 4)
f 12 22 13
f 13 22 23
f 13 23 14
f 14 23 24
f 14 24 15
f 15 24 25
f 15 25 16
f 16 25 26
f 16 26 17
f 17 26 27
f 17 27 18
f 18 27 28
f 18 28 19
f 19 28 29
f 19 29 20
f 20 29 30
f 20 30 21
f 21 30 31
f 21 31 12
f 12 31 22

# ring 2 (between row 4 and 5)
f 22 32 23
f 23 32 33
f 23 33 24
f 24 33 34
f 24 34 25
f 25 34 35
f 25 35 26
f 26 35 36
f 26 36 27
f 27 36 37
f 27 37 28
f 28 37 38
f 28 38 29
f 29 38 39
f 29 39 30
f 30 39 40
f 30 40 31
f 31 40 41
f 31 41 22
f 22 41 32

# bottom cap
f 32 42 33
f 33 42 34
f 34 42 35
f 35 42 36
f 36 42 37
f 37 42 38
f 38 42 39
f 39 42 40
f 40 42 41
f 41 42 32
